<?xml version="1.0" encoding="us-ascii" standalone="no"?><svg xmlns="http://www.w3.org/2000/svg" xmlns:xlink="http://www.w3.org/1999/xlink" contentStyleType="text/css" height="835.2px" preserveAspectRatio="none" style="width:978px;height:835px;background:#FFFFFF;" version="1.1" viewBox="0 0 978 835" width="978px" zoomAndPan="magnify"><defs/><g><!--class Canvas--><g id="elem_Canvas"><rect codeLine="38" fill="#F1F1F1" height="196.3898" id="Canvas" rx="1.5" ry="1.5" style="stroke:#181818;stroke-width:0.3;" width="297" x="367.8" y="170.4"/><ellipse cx="499.35" cy="180" fill="#ADD1B2" rx="6.6" ry="6.6" style="stroke:#181818;stroke-width:0.6;"/><path d="M501.0094,177.525 Q501.1031,177.3937 501.2156,177.3281 Q501.3281,177.2625 501.4594,177.2625 Q501.6844,177.2625 501.825,177.4219 Q501.9656,177.5719 501.9656,177.9375 L501.9656,178.8094 Q501.9656,179.175 501.825,179.3344 Q501.6844,179.4938 501.4594,179.4938 Q501.2531,179.4938 501.1312,179.3719 Q501.0094,179.2594 500.9437,178.95 Q500.9156,178.7344 500.8031,178.6219 Q500.6063,178.3969 500.2406,178.2656 Q499.875,178.1344 499.5,178.1344 Q499.0406,178.1344 498.6563,178.3312 Q498.2813,178.5281 497.9813,178.9781 Q497.6906,179.4281 497.6906,180.0469 L497.6906,180.7031 Q497.6906,181.4438 498.225,181.9406 Q498.7594,182.4281 499.7156,182.4281 Q500.2781,182.4281 500.6719,182.2781 Q500.9063,182.1844 501.1594,181.9219 Q501.3187,181.7625 501.4031,181.7156 Q501.4969,181.6688 501.6188,181.6688 Q501.8156,181.6688 501.9656,181.8281 Q502.125,181.9781 502.125,182.1844 Q502.125,182.3906 501.9188,182.6344 Q501.6188,182.9813 501.1406,183.1781 Q500.4938,183.45 499.7156,183.45 Q498.8063,183.45 498.0844,183.075 Q497.4938,182.775 497.0812,182.1375 Q496.6688,181.4906 496.6688,180.7219 L496.6688,180.0281 Q496.6688,179.2313 497.0344,178.5469 Q497.4094,177.8531 498.0656,177.4875 Q498.7219,177.1125 499.4625,177.1125 Q499.9031,177.1125 500.2875,177.2156 Q500.6813,177.3094 501.0094,177.525 Z " fill="#000000"/><text fill="#000000" font-family="sans-serif" font-size="8.4" lengthAdjust="spacing" textLength="28.8" x="511.65" y="183.4781">Canvas</text><line style="stroke:#181818;stroke-width:0.3;" x1="368.4" x2="664.2" y1="189.6" y2="189.6"/><rect fill="none" height="3.6" style="stroke:#C82930;stroke-width:0.6;" width="3.6" x="372.6" y="196.6863"/><text fill="#000000" font-family="sans-serif" font-size="8.4" lengthAdjust="spacing" textLength="42" x="379.8" y="201.0645">amount: int</text><rect fill="none" height="3.6" style="stroke:#C82930;stroke-width:0.6;" width="3.6" x="372.6" y="207.859"/><text fill="#000000" font-family="sans-serif" font-size="8.4" lengthAdjust="spacing" textLength="165.6" x="379.8" y="212.2371">philosophersArray: PhilosopherViewObject[]</text><rect fill="none" height="3.6" style="stroke:#C82930;stroke-width:0.6;" width="3.6" x="372.6" y="219.0316"/><text fill="#000000" font-family="sans-serif" font-size="8.4" lengthAdjust="spacing" textLength="72.6" x="379.8" y="223.4098">killLines : boolean[]</text><rect fill="none" height="3.6" style="stroke:#C82930;stroke-width:0.6;" width="3.6" x="372.6" y="230.2043"/><text fill="#000000" font-family="sans-serif" font-size="8.4" lengthAdjust="spacing" textLength="108" x="379.8" y="234.5824">forksArray: ForkViewObject[]</text><rect fill="none" height="3.6" style="stroke:#C82930;stroke-width:0.6;" width="3.6" x="372.6" y="241.377"/><text fill="#000000" font-family="sans-serif" font-size="8.4" lengthAdjust="spacing" textLength="166.8" x="379.8" y="245.7551">handsArrayList: ArrayList&lt;HandViewObject&gt;</text><line style="stroke:#181818;stroke-width:0.3;" x1="368.4" x2="664.2" y1="250.2633" y2="250.2633"/><ellipse cx="374.4" cy="259.1496" fill="#84BE84" rx="1.8" ry="1.8" style="stroke:#038048;stroke-width:0.6;"/><text fill="#000000" font-family="sans-serif" font-size="8.4" lengthAdjust="spacing" textLength="76.8" x="379.8" y="261.7277">Canvas(amount: int)</text><ellipse cx="374.4" cy="270.3223" fill="#84BE84" rx="1.8" ry="1.8" style="stroke:#038048;stroke-width:0.6;"/><text fill="#000000" font-family="sans-serif" font-size="8.4" lengthAdjust="spacing" textLength="132.6" x="379.8" y="272.9004">paintComponent(g: Graphics): void</text><ellipse cx="374.4" cy="281.4949" fill="#84BE84" rx="1.8" ry="1.8" style="stroke:#038048;stroke-width:0.6;"/><text fill="#000000" font-family="sans-serif" font-size="8.4" lengthAdjust="spacing" textLength="281.4" x="379.8" y="284.073">calcPhilosophersCoordinates(numberOfCircle: int): PhilosopherViewObject</text><ellipse cx="374.4" cy="292.6676" fill="#84BE84" rx="1.8" ry="1.8" style="stroke:#038048;stroke-width:0.6;"/><text fill="#000000" font-family="sans-serif" font-size="8.4" lengthAdjust="spacing" textLength="222" x="379.8" y="295.2457">calcForksCoordinates(numberOfFork: int): ForkViewObject</text><ellipse cx="374.4" cy="303.8402" fill="#84BE84" rx="1.8" ry="1.8" style="stroke:#038048;stroke-width:0.6;"/><text fill="#000000" font-family="sans-serif" font-size="8.4" lengthAdjust="spacing" textLength="155.4" x="379.8" y="306.4184">killPhilosopher(idOfPhilosopher: int): void</text><ellipse cx="374.4" cy="315.0129" fill="#84BE84" rx="1.8" ry="1.8" style="stroke:#038048;stroke-width:0.6;"/><text fill="#000000" font-family="sans-serif" font-size="8.4" lengthAdjust="spacing" textLength="235.8" x="379.8" y="317.591">PhilosopherGrabsFork(idOfPhilosopher:int, idOfFork: int): void</text><ellipse cx="374.4" cy="326.1855" fill="#84BE84" rx="1.8" ry="1.8" style="stroke:#038048;stroke-width:0.6;"/><text fill="#000000" font-family="sans-serif" font-size="8.4" lengthAdjust="spacing" textLength="235.2" x="379.8" y="328.7637">PhilosopherDropsFork(idOfPhilosopher:int, idOfFork: int): void</text><ellipse cx="374.4" cy="337.3582" fill="#84BE84" rx="1.8" ry="1.8" style="stroke:#038048;stroke-width:0.6;"/><text fill="#000000" font-family="sans-serif" font-size="8.4" lengthAdjust="spacing" textLength="107.4" x="379.8" y="339.9363">setPhilosophersArray(): void</text><ellipse cx="374.4" cy="348.5309" fill="#84BE84" rx="1.8" ry="1.8" style="stroke:#038048;stroke-width:0.6;"/><text fill="#000000" font-family="sans-serif" font-size="8.4" lengthAdjust="spacing" textLength="64.2" x="379.8" y="351.109">setKillines(): void</text><ellipse cx="374.4" cy="359.7035" fill="#84BE84" rx="1.8" ry="1.8" style="stroke:#038048;stroke-width:0.6;"/><text fill="#000000" font-family="sans-serif" font-size="8.4" lengthAdjust="spacing" textLength="75.6" x="379.8" y="362.2816">setForkArray(): void</text></g><!--class Controller--><g id="elem_Controller"><rect codeLine="26" fill="#F1F1F1" height="129.3539" id="Controller" rx="1.5" ry="1.5" style="stroke:#181818;stroke-width:0.3;" width="168.6" x="748.2" y="414.3"/><ellipse cx="811.35" cy="423.9" fill="#ADD1B2" rx="6.6" ry="6.6" style="stroke:#181818;stroke-width:0.6;"/><path d="M813.0094,421.425 Q813.1031,421.2938 813.2156,421.2281 Q813.3281,421.1625 813.4594,421.1625 Q813.6844,421.1625 813.825,421.3219 Q813.9656,421.4719 813.9656,421.8375 L813.9656,422.7094 Q813.9656,423.075 813.825,423.2344 Q813.6844,423.3938 813.4594,423.3938 Q813.2531,423.3938 813.1313,423.2719 Q813.0094,423.1594 812.9438,422.85 Q812.9156,422.6344 812.8031,422.5219 Q812.6062,422.2969 812.2406,422.1656 Q811.875,422.0344 811.5,422.0344 Q811.0406,422.0344 810.6563,422.2313 Q810.2813,422.4281 809.9812,422.8781 Q809.6906,423.3281 809.6906,423.9469 L809.6906,424.6031 Q809.6906,425.3438 810.225,425.8406 Q810.7594,426.3281 811.7156,426.3281 Q812.2781,426.3281 812.6719,426.1781 Q812.9063,426.0844 813.1594,425.8219 Q813.3188,425.6625 813.4031,425.6156 Q813.4969,425.5687 813.6188,425.5687 Q813.8156,425.5687 813.9656,425.7281 Q814.125,425.8781 814.125,426.0844 Q814.125,426.2906 813.9187,426.5344 Q813.6188,426.8812 813.1406,427.0781 Q812.4938,427.35 811.7156,427.35 Q810.8063,427.35 810.0844,426.975 Q809.4938,426.675 809.0813,426.0375 Q808.6687,425.3906 808.6687,424.6219 L808.6687,423.9281 Q808.6687,423.1312 809.0344,422.4469 Q809.4094,421.7531 810.0656,421.3875 Q810.7219,421.0125 811.4625,421.0125 Q811.9031,421.0125 812.2875,421.1156 Q812.6813,421.2094 813.0094,421.425 Z " fill="#000000"/><text fill="#000000" font-family="sans-serif" font-size="8.4" lengthAdjust="spacing" textLength="37.2" x="823.65" y="427.3781">Controller</text><line style="stroke:#181818;stroke-width:0.3;" x1="748.8" x2="916.2" y1="433.5" y2="433.5"/><rect fill="none" height="3.6" style="stroke:#C82930;stroke-width:0.6;" width="3.6" x="753" y="440.5863"/><text fill="#000000" font-family="sans-serif" font-size="8.4" lengthAdjust="spacing" textLength="38.4" x="760.2" y="444.9645">view: View</text><rect fill="none" height="3.6" style="stroke:#C82930;stroke-width:0.6;" width="3.6" x="753" y="451.759"/><text fill="#000000" font-family="sans-serif" font-size="8.4" lengthAdjust="spacing" textLength="45.6" x="760.2" y="456.1371">forks: Fork[]</text><rect fill="none" height="3.6" style="stroke:#C82930;stroke-width:0.6;" width="3.6" x="753" y="462.9316"/><text fill="#000000" font-family="sans-serif" font-size="8.4" lengthAdjust="spacing" textLength="42" x="760.2" y="467.3098">amount: int</text><line style="stroke:#181818;stroke-width:0.3;" x1="748.8" x2="916.2" y1="471.818" y2="471.818"/><ellipse cx="754.8" cy="480.7043" fill="#84BE84" rx="1.8" ry="1.8" style="stroke:#038048;stroke-width:0.6;"/><text fill="#000000" font-family="sans-serif" font-size="8.4" lengthAdjust="spacing" textLength="85.2" x="760.2" y="483.2824">Controller(amount: int)</text><ellipse cx="754.8" cy="491.877" fill="#84BE84" rx="1.8" ry="1.8" style="stroke:#038048;stroke-width:0.6;"/><text fill="#000000" font-family="sans-serif" font-size="8.4" lengthAdjust="spacing" textLength="67.8" x="760.2" y="494.4551">createView(): void</text><ellipse cx="754.8" cy="503.0496" fill="#84BE84" rx="1.8" ry="1.8" style="stroke:#038048;stroke-width:0.6;"/><text fill="#000000" font-family="sans-serif" font-size="8.4" lengthAdjust="spacing" textLength="120" x="760.2" y="505.6277">startPhilosopherThreads(): void</text><ellipse cx="754.8" cy="514.2223" fill="#84BE84" rx="1.8" ry="1.8" style="stroke:#038048;stroke-width:0.6;"/><text fill="#000000" font-family="sans-serif" font-size="8.4" lengthAdjust="spacing" textLength="63" x="760.2" y="516.8004">showView(): void</text><ellipse cx="754.8" cy="525.3949" fill="#84BE84" rx="1.8" ry="1.8" style="stroke:#038048;stroke-width:0.6;"/><text fill="#000000" font-family="sans-serif" font-size="8.4" lengthAdjust="spacing" textLength="72" x="760.2" y="527.973">createForks(): void</text><ellipse cx="754.8" cy="536.5676" fill="#84BE84" rx="1.8" ry="1.8" style="stroke:#038048;stroke-width:0.6;"/><text fill="#000000" font-family="sans-serif" font-size="8.4" lengthAdjust="spacing" textLength="153" x="760.2" y="539.1457">update(o: Observable, arg: Object): void</text></g><!--class EventData--><g id="elem_EventData"><rect codeLine="56" fill="#F1F1F1" height="84.6633" id="EventData" rx="1.5" ry="1.5" style="stroke:#181818;stroke-width:0.3;" width="166.8" x="807.3" y="746.4"/><ellipse cx="868.35" cy="756" fill="#ADD1B2" rx="6.6" ry="6.6" style="stroke:#181818;stroke-width:0.6;"/><path d="M870.0094,753.525 Q870.1031,753.3938 870.2156,753.3281 Q870.3281,753.2625 870.4594,753.2625 Q870.6844,753.2625 870.825,753.4219 Q870.9656,753.5719 870.9656,753.9375 L870.9656,754.8094 Q870.9656,755.175 870.825,755.3344 Q870.6844,755.4938 870.4594,755.4938 Q870.2531,755.4938 870.1313,755.3719 Q870.0094,755.2594 869.9438,754.95 Q869.9156,754.7344 869.8031,754.6219 Q869.6062,754.3969 869.2406,754.2656 Q868.875,754.1344 868.5,754.1344 Q868.0406,754.1344 867.6563,754.3313 Q867.2813,754.5281 866.9812,754.9781 Q866.6906,755.4281 866.6906,756.0469 L866.6906,756.7031 Q866.6906,757.4438 867.225,757.9406 Q867.7594,758.4281 868.7156,758.4281 Q869.2781,758.4281 869.6719,758.2781 Q869.9063,758.1844 870.1594,757.9219 Q870.3188,757.7625 870.4031,757.7156 Q870.4969,757.6687 870.6188,757.6687 Q870.8156,757.6687 870.9656,757.8281 Q871.125,757.9781 871.125,758.1844 Q871.125,758.3906 870.9187,758.6344 Q870.6188,758.9812 870.1406,759.1781 Q869.4938,759.45 868.7156,759.45 Q867.8063,759.45 867.0844,759.075 Q866.4938,758.775 866.0813,758.1375 Q865.6687,757.4906 865.6687,756.7219 L865.6687,756.0281 Q865.6687,755.2312 866.0344,754.5469 Q866.4094,753.8531 867.0656,753.4875 Q867.7219,753.1125 868.4625,753.1125 Q868.9031,753.1125 869.2875,753.2156 Q869.6813,753.3094 870.0094,753.525 Z " fill="#000000"/><text fill="#000000" font-family="sans-serif" font-size="8.4" lengthAdjust="spacing" textLength="39.6" x="880.65" y="759.4781">EventData</text><line style="stroke:#181818;stroke-width:0.3;" x1="807.9" x2="973.5" y1="765.6" y2="765.6"/><rect fill="none" height="3.6" style="stroke:#C82930;stroke-width:0.6;" width="3.6" x="812.1" y="772.6863"/><text fill="#000000" font-family="sans-serif" font-size="8.4" lengthAdjust="spacing" textLength="34.8" x="819.3" y="777.0645">event: int</text><rect fill="none" height="3.6" style="stroke:#C82930;stroke-width:0.6;" width="3.6" x="812.1" y="783.859"/><text fill="#000000" font-family="sans-serif" font-size="8.4" lengthAdjust="spacing" textLength="66" x="819.3" y="788.2371">philosopherID: int</text><line style="stroke:#181818;stroke-width:0.3;" x1="807.9" x2="973.5" y1="792.7453" y2="792.7453"/><ellipse cx="813.9" cy="801.6316" fill="#84BE84" rx="1.8" ry="1.8" style="stroke:#038048;stroke-width:0.6;"/><text fill="#000000" font-family="sans-serif" font-size="8.4" lengthAdjust="spacing" textLength="151.2" x="819.3" y="804.2098">EventData(event: int, philosopherID: int)</text><ellipse cx="813.9" cy="812.8043" fill="#84BE84" rx="1.8" ry="1.8" style="stroke:#038048;stroke-width:0.6;"/><text fill="#000000" font-family="sans-serif" font-size="8.4" lengthAdjust="spacing" textLength="53.4" x="819.3" y="815.3824">getEvent(): int</text><ellipse cx="813.9" cy="823.977" fill="#84BE84" rx="1.8" ry="1.8" style="stroke:#038048;stroke-width:0.6;"/><text fill="#000000" font-family="sans-serif" font-size="8.4" lengthAdjust="spacing" textLength="84.6" x="819.3" y="826.5551">getPhilosopherID(): int</text></g><!--class Fork--><g id="elem_Fork"><rect codeLine="64" fill="#F1F1F1" height="73.4906" id="Fork" rx="1.5" ry="1.5" style="stroke:#181818;stroke-width:0.3;" width="74.4" x="706.5" y="614.1"/><ellipse cx="732.51" cy="623.7" fill="#ADD1B2" rx="6.6" ry="6.6" style="stroke:#181818;stroke-width:0.6;"/><path d="M734.1694,621.225 Q734.2631,621.0938 734.3756,621.0281 Q734.4881,620.9625 734.6194,620.9625 Q734.8444,620.9625 734.985,621.1219 Q735.1256,621.2719 735.1256,621.6375 L735.1256,622.5094 Q735.1256,622.875 734.985,623.0344 Q734.8444,623.1938 734.6194,623.1938 Q734.4131,623.1938 734.2912,623.0719 Q734.1694,622.9594 734.1037,622.65 Q734.0756,622.4344 733.9631,622.3219 Q733.7662,622.0969 733.4006,621.9656 Q733.035,621.8344 732.66,621.8344 Q732.2006,621.8344 731.8163,622.0313 Q731.4413,622.2281 731.1412,622.6781 Q730.8506,623.1281 730.8506,623.7469 L730.8506,624.4031 Q730.8506,625.1438 731.385,625.6406 Q731.9194,626.1281 732.8756,626.1281 Q733.4381,626.1281 733.8319,625.9781 Q734.0663,625.8844 734.3194,625.6219 Q734.4787,625.4625 734.5631,625.4156 Q734.6569,625.3688 734.7788,625.3688 Q734.9756,625.3688 735.1256,625.5281 Q735.285,625.6781 735.285,625.8844 Q735.285,626.0906 735.0787,626.3344 Q734.7788,626.6813 734.3006,626.8781 Q733.6538,627.15 732.8756,627.15 Q731.9663,627.15 731.2444,626.775 Q730.6538,626.475 730.2412,625.8375 Q729.8287,625.1906 729.8287,624.4219 L729.8287,623.7281 Q729.8287,622.9313 730.1944,622.2469 Q730.5694,621.5531 731.2256,621.1875 Q731.8819,620.8125 732.6225,620.8125 Q733.0631,620.8125 733.4475,620.9156 Q733.8413,621.0094 734.1694,621.225 Z " fill="#000000"/><text fill="#000000" font-family="sans-serif" font-size="8.4" lengthAdjust="spacing" textLength="17.4" x="744.69" y="627.1781">Fork</text><line style="stroke:#181818;stroke-width:0.3;" x1="707.1" x2="780.3" y1="633.3" y2="633.3"/><rect fill="none" height="3.6" style="stroke:#C82930;stroke-width:0.6;" width="3.6" x="711.3" y="640.3863"/><text fill="#000000" font-family="sans-serif" font-size="8.4" lengthAdjust="spacing" textLength="58.8" x="718.5" y="644.7645">permit: boolean</text><line style="stroke:#181818;stroke-width:0.3;" x1="707.1" x2="780.3" y1="649.2727" y2="649.2727"/><ellipse cx="713.1" cy="658.159" fill="#84BE84" rx="1.8" ry="1.8" style="stroke:#038048;stroke-width:0.6;"/><text fill="#000000" font-family="sans-serif" font-size="8.4" lengthAdjust="spacing" textLength="23.4" x="718.5" y="660.7371">Fork()</text><ellipse cx="713.1" cy="669.3316" fill="#84BE84" rx="1.8" ry="1.8" style="stroke:#038048;stroke-width:0.6;"/><text fill="#000000" font-family="sans-serif" font-size="8.4" lengthAdjust="spacing" textLength="58.8" x="718.5" y="671.9098">grab(): boolean</text><ellipse cx="713.1" cy="680.5043" fill="#84BE84" rx="1.8" ry="1.8" style="stroke:#038048;stroke-width:0.6;"/><text fill="#000000" font-family="sans-serif" font-size="8.4" lengthAdjust="spacing" textLength="43.8" x="718.5" y="683.0824">drop(): void</text></g><!--class ForkViewObject--><g id="elem_ForkViewObject"><rect codeLine="71" fill="#F1F1F1" height="151.6992" id="ForkViewObject" rx="1.5" ry="1.5" style="stroke:#181818;stroke-width:0.3;" width="210.6" x="231" y="403.2"/><ellipse cx="304.05" cy="412.8" fill="#ADD1B2" rx="6.6" ry="6.6" style="stroke:#181818;stroke-width:0.6;"/><path d="M305.7094,410.325 Q305.8031,410.1937 305.9156,410.1281 Q306.0281,410.0625 306.1594,410.0625 Q306.3844,410.0625 306.525,410.2219 Q306.6656,410.3719 306.6656,410.7375 L306.6656,411.6094 Q306.6656,411.975 306.525,412.1344 Q306.3844,412.2938 306.1594,412.2938 Q305.9531,412.2938 305.8313,412.1719 Q305.7094,412.0594 305.6438,411.75 Q305.6156,411.5344 305.5031,411.4219 Q305.3063,411.1969 304.9406,411.0656 Q304.575,410.9344 304.2,410.9344 Q303.7406,410.9344 303.3563,411.1312 Q302.9813,411.3281 302.6813,411.7781 Q302.3906,412.2281 302.3906,412.8469 L302.3906,413.5031 Q302.3906,414.2438 302.925,414.7406 Q303.4594,415.2281 304.4156,415.2281 Q304.9781,415.2281 305.3719,415.0781 Q305.6063,414.9844 305.8594,414.7219 Q306.0188,414.5625 306.1031,414.5156 Q306.1969,414.4688 306.3187,414.4688 Q306.5156,414.4688 306.6656,414.6281 Q306.825,414.7781 306.825,414.9844 Q306.825,415.1906 306.6188,415.4344 Q306.3187,415.7813 305.8406,415.9781 Q305.1937,416.25 304.4156,416.25 Q303.5062,416.25 302.7844,415.875 Q302.1937,415.575 301.7813,414.9375 Q301.3688,414.2906 301.3688,413.5219 L301.3688,412.8281 Q301.3688,412.0313 301.7344,411.3469 Q302.1094,410.6531 302.7656,410.2875 Q303.4219,409.9125 304.1625,409.9125 Q304.6031,409.9125 304.9875,410.0156 Q305.3812,410.1094 305.7094,410.325 Z " fill="#000000"/><text fill="#000000" font-family="sans-serif" font-size="8.4" lengthAdjust="spacing" textLength="59.4" x="316.35" y="416.2781">ForkViewObject</text><line style="stroke:#181818;stroke-width:0.3;" x1="231.6" x2="441" y1="422.4" y2="422.4"/><rect fill="none" height="3.6" style="stroke:#C82930;stroke-width:0.6;" width="3.6" x="235.8" y="429.4863"/><text fill="#000000" font-family="sans-serif" font-size="8.4" lengthAdjust="spacing" textLength="22.2" x="243" y="433.8645">x1: int</text><rect fill="none" height="3.6" style="stroke:#C82930;stroke-width:0.6;" width="3.6" x="235.8" y="440.659"/><text fill="#000000" font-family="sans-serif" font-size="8.4" lengthAdjust="spacing" textLength="22.8" x="243" y="445.0371">y1: int</text><rect fill="none" height="3.6" style="stroke:#C82930;stroke-width:0.6;" width="3.6" x="235.8" y="451.8316"/><text fill="#000000" font-family="sans-serif" font-size="8.4" lengthAdjust="spacing" textLength="22.2" x="243" y="456.2098">x2: int</text><rect fill="none" height="3.6" style="stroke:#C82930;stroke-width:0.6;" width="3.6" x="235.8" y="463.0043"/><text fill="#000000" font-family="sans-serif" font-size="8.4" lengthAdjust="spacing" textLength="22.8" x="243" y="467.3824">y2: int</text><rect fill="none" height="3.6" style="stroke:#C82930;stroke-width:0.6;" width="3.6" x="235.8" y="474.177"/><text fill="#000000" font-family="sans-serif" font-size="8.4" lengthAdjust="spacing" textLength="38.4" x="243" y="478.5551">id: final int</text><line style="stroke:#181818;stroke-width:0.3;" x1="231.6" x2="441" y1="483.0633" y2="483.0633"/><ellipse cx="237.6" cy="491.9496" fill="#84BE84" rx="1.8" ry="1.8" style="stroke:#038048;stroke-width:0.6;"/><text fill="#000000" font-family="sans-serif" font-size="8.4" lengthAdjust="spacing" textLength="195" x="243" y="494.5277">ForkViewObject(x1: int, y1: int, x2: int, y2: int, id: int)</text><ellipse cx="237.6" cy="503.1223" fill="#84BE84" rx="1.8" ry="1.8" style="stroke:#038048;stroke-width:0.6;"/><text fill="#000000" font-family="sans-serif" font-size="8.4" lengthAdjust="spacing" textLength="41.4" x="243" y="505.7004">getX1(): int</text><ellipse cx="237.6" cy="514.2949" fill="#84BE84" rx="1.8" ry="1.8" style="stroke:#038048;stroke-width:0.6;"/><text fill="#000000" font-family="sans-serif" font-size="8.4" lengthAdjust="spacing" textLength="42" x="243" y="516.873">getY1(): int</text><ellipse cx="237.6" cy="525.4676" fill="#84BE84" rx="1.8" ry="1.8" style="stroke:#038048;stroke-width:0.6;"/><text fill="#000000" font-family="sans-serif" font-size="8.4" lengthAdjust="spacing" textLength="41.4" x="243" y="528.0457">getX2(): int</text><ellipse cx="237.6" cy="536.6402" fill="#84BE84" rx="1.8" ry="1.8" style="stroke:#038048;stroke-width:0.6;"/><text fill="#000000" font-family="sans-serif" font-size="8.4" lengthAdjust="spacing" textLength="42" x="243" y="539.2184">getY2(): int</text><ellipse cx="237.6" cy="547.8129" fill="#84BE84" rx="1.8" ry="1.8" style="stroke:#038048;stroke-width:0.6;"/><text fill="#000000" font-family="sans-serif" font-size="8.4" lengthAdjust="spacing" textLength="38.4" x="243" y="550.391">getId(): int</text></g><!--class HandViewObject--><g id="elem_HandViewObject"><rect codeLine="85" fill="#F1F1F1" height="84.6633" id="HandViewObject" rx="1.5" ry="1.5" style="stroke:#181818;stroke-width:0.3;" width="303" x="4.2" y="226.2"/><ellipse cx="122.25" cy="235.8" fill="#ADD1B2" rx="6.6" ry="6.6" style="stroke:#181818;stroke-width:0.6;"/><path d="M123.9094,233.325 Q124.0031,233.1938 124.1156,233.1281 Q124.2281,233.0625 124.3594,233.0625 Q124.5844,233.0625 124.725,233.2219 Q124.8656,233.3719 124.8656,233.7375 L124.8656,234.6094 Q124.8656,234.975 124.725,235.1344 Q124.5844,235.2938 124.3594,235.2938 Q124.1531,235.2938 124.0313,235.1719 Q123.9094,235.0594 123.8438,234.75 Q123.8156,234.5344 123.7031,234.4219 Q123.5063,234.1969 123.1406,234.0656 Q122.775,233.9344 122.4,233.9344 Q121.9406,233.9344 121.5562,234.1313 Q121.1812,234.3281 120.8813,234.7781 Q120.5906,235.2281 120.5906,235.8469 L120.5906,236.5031 Q120.5906,237.2437 121.125,237.7406 Q121.6594,238.2281 122.6156,238.2281 Q123.1781,238.2281 123.5719,238.0781 Q123.8062,237.9844 124.0594,237.7219 Q124.2188,237.5625 124.3031,237.5156 Q124.3969,237.4688 124.5188,237.4688 Q124.7156,237.4688 124.8656,237.6281 Q125.025,237.7781 125.025,237.9844 Q125.025,238.1906 124.8188,238.4344 Q124.5188,238.7813 124.0406,238.9781 Q123.3938,239.25 122.6156,239.25 Q121.7063,239.25 120.9844,238.875 Q120.3938,238.575 119.9812,237.9375 Q119.5688,237.2906 119.5688,236.5219 L119.5688,235.8281 Q119.5688,235.0313 119.9344,234.3469 Q120.3094,233.6531 120.9656,233.2875 Q121.6219,232.9125 122.3625,232.9125 Q122.8031,232.9125 123.1875,233.0156 Q123.5813,233.1094 123.9094,233.325 Z " fill="#000000"/><text fill="#000000" font-family="sans-serif" font-size="8.4" lengthAdjust="spacing" textLength="61.8" x="134.55" y="239.2781">HandViewObject</text><line style="stroke:#181818;stroke-width:0.3;" x1="4.8" x2="306.6" y1="245.4" y2="245.4"/><rect fill="none" height="3.6" style="stroke:#C82930;stroke-width:0.6;" width="3.6" x="9" y="252.4863"/><text fill="#000000" font-family="sans-serif" font-size="8.4" lengthAdjust="spacing" textLength="78.6" x="16.2" y="256.8645">fork: ForkViewObject</text><rect fill="none" height="3.6" style="stroke:#C82930;stroke-width:0.6;" width="3.6" x="9" y="263.659"/><text fill="#000000" font-family="sans-serif" font-size="8.4" lengthAdjust="spacing" textLength="136.2" x="16.2" y="268.0371">philosopher: PhilosopherViewObject</text><line style="stroke:#181818;stroke-width:0.3;" x1="4.8" x2="306.6" y1="272.5453" y2="272.5453"/><ellipse cx="10.8" cy="281.4316" fill="#84BE84" rx="1.8" ry="1.8" style="stroke:#038048;stroke-width:0.6;"/><text fill="#000000" font-family="sans-serif" font-size="8.4" lengthAdjust="spacing" textLength="287.4" x="16.2" y="284.0098">HandViewObject(fork: ForkViewObject, philosopher: PhilosopherViewObject)</text><ellipse cx="10.8" cy="292.6043" fill="#84BE84" rx="1.8" ry="1.8" style="stroke:#038048;stroke-width:0.6;"/><text fill="#000000" font-family="sans-serif" font-size="8.4" lengthAdjust="spacing" textLength="99.6" x="16.2" y="295.1824">getFork(): ForkViewObject</text><ellipse cx="10.8" cy="303.777" fill="#84BE84" rx="1.8" ry="1.8" style="stroke:#038048;stroke-width:0.6;"/><text fill="#000000" font-family="sans-serif" font-size="8.4" lengthAdjust="spacing" textLength="154.8" x="16.2" y="306.3551">getPhilosopher(): PhilosopherViewObject</text></g><!--class Philosopher--><g id="elem_Philosopher"><rect codeLine="93" fill="#F1F1F1" height="118.1812" id="Philosopher" rx="1.5" ry="1.5" style="stroke:#181818;stroke-width:0.3;" width="137.4" x="822" y="591.6"/><ellipse cx="865.65" cy="601.2" fill="#ADD1B2" rx="6.6" ry="6.6" style="stroke:#181818;stroke-width:0.6;"/><path d="M867.3094,598.725 Q867.4031,598.5938 867.5156,598.5281 Q867.6281,598.4625 867.7594,598.4625 Q867.9844,598.4625 868.125,598.6219 Q868.2656,598.7719 868.2656,599.1375 L868.2656,600.0094 Q868.2656,600.375 868.125,600.5344 Q867.9844,600.6938 867.7594,600.6938 Q867.5531,600.6938 867.4313,600.5719 Q867.3094,600.4594 867.2438,600.15 Q867.2156,599.9344 867.1031,599.8219 Q866.9063,599.5969 866.5406,599.4656 Q866.175,599.3344 865.8,599.3344 Q865.3406,599.3344 864.9563,599.5313 Q864.5813,599.7281 864.2813,600.1781 Q863.9906,600.6281 863.9906,601.2469 L863.9906,601.9031 Q863.9906,602.6438 864.525,603.1406 Q865.0594,603.6281 866.0156,603.6281 Q866.5781,603.6281 866.9719,603.4781 Q867.2063,603.3844 867.4594,603.1219 Q867.6188,602.9625 867.7031,602.9156 Q867.7969,602.8688 867.9187,602.8688 Q868.1156,602.8688 868.2656,603.0281 Q868.425,603.1781 868.425,603.3844 Q868.425,603.5906 868.2188,603.8344 Q867.9187,604.1813 867.4406,604.3781 Q866.7937,604.65 866.0156,604.65 Q865.1062,604.65 864.3844,604.275 Q863.7937,603.975 863.3813,603.3375 Q862.9688,602.6906 862.9688,601.9219 L862.9688,601.2281 Q862.9688,600.4313 863.3344,599.7469 Q863.7094,599.0531 864.3656,598.6875 Q865.0219,598.3125 865.7625,598.3125 Q866.2031,598.3125 866.5875,598.4156 Q866.9812,598.5094 867.3094,598.725 Z " fill="#000000"/><text fill="#000000" font-family="sans-serif" font-size="8.4" lengthAdjust="spacing" textLength="45" x="877.95" y="604.6781">Philosopher</text><line style="stroke:#181818;stroke-width:0.3;" x1="822.6" x2="958.8" y1="610.8" y2="610.8"/><rect fill="none" height="3.6" style="stroke:#C82930;stroke-width:0.6;" width="3.6" x="826.8" y="617.8863"/><text fill="#000000" font-family="sans-serif" font-size="8.4" lengthAdjust="spacing" textLength="48" x="834" y="622.2645">leftfork: Fork</text><rect fill="none" height="3.6" style="stroke:#C82930;stroke-width:0.6;" width="3.6" x="826.8" y="629.059"/><text fill="#000000" font-family="sans-serif" font-size="8.4" lengthAdjust="spacing" textLength="53.4" x="834" y="633.4371">rightfork: Fork</text><rect fill="none" height="3.6" style="stroke:#C82930;stroke-width:0.6;" width="3.6" x="826.8" y="640.2316"/><text fill="#000000" font-family="sans-serif" font-size="8.4" lengthAdjust="spacing" textLength="20.4" x="834" y="644.6098">id: int</text><rect fill="none" height="3.6" style="stroke:#C82930;stroke-width:0.6;" width="3.6" x="826.8" y="651.4043"/><text fill="#000000" font-family="sans-serif" font-size="8.4" lengthAdjust="spacing" textLength="121.8" x="834" y="655.7824">millisecondsSinceLastMeal: long</text><line style="stroke:#181818;stroke-width:0.3;" x1="822.6" x2="958.8" y1="660.2906" y2="660.2906"/><ellipse cx="828.6" cy="669.177" fill="#84BE84" rx="1.8" ry="1.8" style="stroke:#038048;stroke-width:0.6;"/><text fill="#000000" font-family="sans-serif" font-size="8.4" lengthAdjust="spacing" textLength="38.4" x="834" y="671.7551">eat(): void</text><ellipse cx="828.6" cy="680.3496" fill="#84BE84" rx="1.8" ry="1.8" style="stroke:#038048;stroke-width:0.6;"/><text fill="#000000" font-family="sans-serif" font-size="8.4" lengthAdjust="spacing" textLength="73.2" x="834" y="682.9277">philosophize(): void</text><ellipse cx="828.6" cy="691.5223" fill="#84BE84" rx="1.8" ry="1.8" style="stroke:#038048;stroke-width:0.6;"/><text fill="#000000" font-family="sans-serif" font-size="8.4" lengthAdjust="spacing" textLength="49.8" x="834" y="694.1004">pause(): void</text><ellipse cx="828.6" cy="702.6949" fill="#84BE84" rx="1.8" ry="1.8" style="stroke:#038048;stroke-width:0.6;"/><text fill="#000000" font-family="sans-serif" font-size="8.4" lengthAdjust="spacing" textLength="39" x="834" y="705.273">run(): void</text></g><!--class PhilosopherViewObject--><g id="elem_PhilosopherViewObject"><rect codeLine="104" fill="#F1F1F1" height="129.3539" id="PhilosopherViewObject" rx="1.5" ry="1.5" style="stroke:#181818;stroke-width:0.3;" width="249.6" x="210.9" y="4.2"/><ellipse cx="289.65" cy="13.8" fill="#ADD1B2" rx="6.6" ry="6.6" style="stroke:#181818;stroke-width:0.6;"/><path d="M291.3094,11.325 Q291.4031,11.1938 291.5156,11.1281 Q291.6281,11.0625 291.7594,11.0625 Q291.9844,11.0625 292.125,11.2219 Q292.2656,11.3719 292.2656,11.7375 L292.2656,12.6094 Q292.2656,12.975 292.125,13.1344 Q291.9844,13.2938 291.7594,13.2938 Q291.5531,13.2938 291.4313,13.1719 Q291.3094,13.0594 291.2438,12.75 Q291.2156,12.5344 291.1031,12.4219 Q290.9063,12.1969 290.5406,12.0656 Q290.175,11.9344 289.8,11.9344 Q289.3406,11.9344 288.9563,12.1313 Q288.5813,12.3281 288.2813,12.7781 Q287.9906,13.2281 287.9906,13.8469 L287.9906,14.5031 Q287.9906,15.2437 288.525,15.7406 Q289.0594,16.2281 290.0156,16.2281 Q290.5781,16.2281 290.9719,16.0781 Q291.2063,15.9844 291.4594,15.7219 Q291.6188,15.5625 291.7031,15.5156 Q291.7969,15.4688 291.9188,15.4688 Q292.1156,15.4688 292.2656,15.6281 Q292.425,15.7781 292.425,15.9844 Q292.425,16.1906 292.2188,16.4344 Q291.9188,16.7813 291.4406,16.9781 Q290.7938,17.25 290.0156,17.25 Q289.1063,17.25 288.3844,16.875 Q287.7938,16.575 287.3812,15.9375 Q286.9688,15.2906 286.9688,14.5219 L286.9688,13.8281 Q286.9688,13.0313 287.3344,12.3469 Q287.7094,11.6531 288.3656,11.2875 Q289.0219,10.9125 289.7625,10.9125 Q290.2031,10.9125 290.5875,11.0156 Q290.9813,11.1094 291.3094,11.325 Z " fill="#000000"/><text fill="#000000" font-family="sans-serif" font-size="8.4" lengthAdjust="spacing" textLength="87" x="301.95" y="17.2781">PhilosopherViewObject</text><line style="stroke:#181818;stroke-width:0.3;" x1="211.5" x2="459.9" y1="23.4" y2="23.4"/><rect fill="none" height="3.6" style="stroke:#C82930;stroke-width:0.6;" width="3.6" x="215.7" y="30.4863"/><text fill="#000000" font-family="sans-serif" font-size="8.4" lengthAdjust="spacing" textLength="17.4" x="222.9" y="34.8645">x: int</text><rect fill="none" height="3.6" style="stroke:#C82930;stroke-width:0.6;" width="3.6" x="215.7" y="41.659"/><text fill="#000000" font-family="sans-serif" font-size="8.4" lengthAdjust="spacing" textLength="18" x="222.9" y="46.0371">y: int</text><rect fill="none" height="3.6" style="stroke:#C82930;stroke-width:0.6;" width="3.6" x="215.7" y="52.8316"/><text fill="#000000" font-family="sans-serif" font-size="8.4" lengthAdjust="spacing" textLength="16.8" x="222.9" y="57.2098">r: int</text><rect fill="none" height="3.6" style="stroke:#C82930;stroke-width:0.6;" width="3.6" x="215.7" y="64.0043"/><text fill="#000000" font-family="sans-serif" font-size="8.4" lengthAdjust="spacing" textLength="38.4" x="222.9" y="68.3824">id: final int</text><line style="stroke:#181818;stroke-width:0.3;" x1="211.5" x2="459.9" y1="72.8906" y2="72.8906"/><ellipse cx="217.5" cy="81.777" fill="#84BE84" rx="1.8" ry="1.8" style="stroke:#038048;stroke-width:0.6;"/><text fill="#000000" font-family="sans-serif" font-size="8.4" lengthAdjust="spacing" textLength="234" x="222.9" y="84.3551">PhilosopherViewObject(x: int, y: int, r: int, idOfPhilosopher: int)</text><ellipse cx="217.5" cy="92.9496" fill="#84BE84" rx="1.8" ry="1.8" style="stroke:#038048;stroke-width:0.6;"/><text fill="#000000" font-family="sans-serif" font-size="8.4" lengthAdjust="spacing" textLength="36.6" x="222.9" y="95.5277">getX(): int</text><ellipse cx="217.5" cy="104.1223" fill="#84BE84" rx="1.8" ry="1.8" style="stroke:#038048;stroke-width:0.6;"/><text fill="#000000" font-family="sans-serif" font-size="8.4" lengthAdjust="spacing" textLength="37.2" x="222.9" y="106.7004">getY(): int</text><ellipse cx="217.5" cy="115.2949" fill="#84BE84" rx="1.8" ry="1.8" style="stroke:#038048;stroke-width:0.6;"/><text fill="#000000" font-family="sans-serif" font-size="8.4" lengthAdjust="spacing" textLength="37.8" x="222.9" y="117.873">getR(): int</text><ellipse cx="217.5" cy="126.4676" fill="#84BE84" rx="1.8" ry="1.8" style="stroke:#038048;stroke-width:0.6;"/><text fill="#000000" font-family="sans-serif" font-size="8.4" lengthAdjust="spacing" textLength="38.4" x="222.9" y="129.0457">getId(): int</text></g><!--class View--><g id="elem_View"><rect codeLine="116" fill="#F1F1F1" height="95.8359" id="View" rx="1.5" ry="1.5" style="stroke:#181818;stroke-width:0.3;" width="253.2" x="705.9" y="220.5"/><ellipse cx="821.25" cy="230.1" fill="#ADD1B2" rx="6.6" ry="6.6" style="stroke:#181818;stroke-width:0.6;"/><path d="M822.9094,227.625 Q823.0031,227.4938 823.1156,227.4281 Q823.2281,227.3625 823.3594,227.3625 Q823.5844,227.3625 823.725,227.5219 Q823.8656,227.6719 823.8656,228.0375 L823.8656,228.9094 Q823.8656,229.275 823.725,229.4344 Q823.5844,229.5938 823.3594,229.5938 Q823.1531,229.5938 823.0313,229.4719 Q822.9094,229.3594 822.8438,229.05 Q822.8156,228.8344 822.7031,228.7219 Q822.5063,228.4969 822.1406,228.3656 Q821.775,228.2344 821.4,228.2344 Q820.9406,228.2344 820.5563,228.4313 Q820.1813,228.6281 819.8813,229.0781 Q819.5906,229.5281 819.5906,230.1469 L819.5906,230.8031 Q819.5906,231.5438 820.125,232.0406 Q820.6594,232.5281 821.6156,232.5281 Q822.1781,232.5281 822.5719,232.3781 Q822.8063,232.2844 823.0594,232.0219 Q823.2188,231.8625 823.3031,231.8156 Q823.3969,231.7687 823.5188,231.7687 Q823.7156,231.7687 823.8656,231.9281 Q824.025,232.0781 824.025,232.2844 Q824.025,232.4906 823.8188,232.7344 Q823.5188,233.0812 823.0406,233.2781 Q822.3938,233.55 821.6156,233.55 Q820.7063,233.55 819.9844,233.175 Q819.3938,232.875 818.9812,232.2375 Q818.5688,231.5906 818.5688,230.8219 L818.5688,230.1281 Q818.5688,229.3312 818.9344,228.6469 Q819.3094,227.9531 819.9656,227.5875 Q820.6219,227.2125 821.3625,227.2125 Q821.8031,227.2125 822.1875,227.3156 Q822.5813,227.4094 822.9094,227.625 Z " fill="#000000"/><text fill="#000000" font-family="sans-serif" font-size="8.4" lengthAdjust="spacing" textLength="17.4" x="833.55" y="233.5781">View</text><line style="stroke:#181818;stroke-width:0.3;" x1="706.5" x2="958.5" y1="239.7" y2="239.7"/><rect fill="none" height="3.6" style="stroke:#C82930;stroke-width:0.6;" width="3.6" x="710.7" y="246.7863"/><text fill="#000000" font-family="sans-serif" font-size="8.4" lengthAdjust="spacing" textLength="42" x="717.9" y="251.1645">amount: int</text><rect fill="none" height="3.6" style="stroke:#C82930;stroke-width:0.6;" width="3.6" x="710.7" y="257.959"/><text fill="#000000" font-family="sans-serif" font-size="8.4" lengthAdjust="spacing" textLength="60.6" x="717.9" y="262.3371">canvas: Canvas</text><line style="stroke:#181818;stroke-width:0.3;" x1="706.5" x2="958.5" y1="266.8453" y2="266.8453"/><ellipse cx="712.5" cy="275.7316" fill="#84BE84" rx="1.8" ry="1.8" style="stroke:#038048;stroke-width:0.6;"/><text fill="#000000" font-family="sans-serif" font-size="8.4" lengthAdjust="spacing" textLength="65.4" x="717.9" y="278.3098">View(amount: int)</text><ellipse cx="712.5" cy="286.9043" fill="#84BE84" rx="1.8" ry="1.8" style="stroke:#038048;stroke-width:0.6;"/><text fill="#000000" font-family="sans-serif" font-size="8.4" lengthAdjust="spacing" textLength="155.4" x="717.9" y="289.4824">killPhilosopher(idOfPhilosopher: int): void</text><ellipse cx="712.5" cy="298.077" fill="#84BE84" rx="1.8" ry="1.8" style="stroke:#038048;stroke-width:0.6;"/><text fill="#000000" font-family="sans-serif" font-size="8.4" lengthAdjust="spacing" textLength="237.6" x="717.9" y="300.6551">philosopherGrabsFork(idOfPhilosopher: int, idOfFork: int): void</text><ellipse cx="712.5" cy="309.2496" fill="#84BE84" rx="1.8" ry="1.8" style="stroke:#038048;stroke-width:0.6;"/><text fill="#000000" font-family="sans-serif" font-size="8.4" lengthAdjust="spacing" textLength="237" x="717.9" y="311.8277">philosopherDropsFork(idOfPhilosopher: int, idOfFork: int): void</text></g><!--link Controller to Fork--><g id="link_Controller_Fork"><path codeLine="13" d="M795.6017,550.5065 C783.2717,574.1585 778.0803,584.1291 767.5023,604.4211 " fill="none" id="Controller-Fork" style="stroke:#181818;stroke-width:0.6;"/><polygon fill="#181818" points="798.93,544.122,795.1377,546.2048,795.6017,550.5065,799.394,548.4237,798.93,544.122" style="stroke:#181818;stroke-width:0.6;"/><polygon fill="none" points="762.51,613.998,770.6946,606.0852,764.31,602.757,762.51,613.998" style="stroke:#181818;stroke-width:0.6;"/><text fill="#000000" font-family="sans-serif" font-size="7.8" lengthAdjust="spacing" textLength="4.2" x="787.6101" y="556.8249">1</text><text fill="#000000" font-family="sans-serif" font-size="7.8" lengthAdjust="spacing" textLength="12" x="746.9137" y="607.3749">3..*</text></g><!--link Controller to Philosopher--><g id="link_Controller_Philosopher"><path codeLine="14" d="M854.502,544.122 C859.812,559.674 861.9741,565.9834 867.1881,581.2534 " fill="none" id="Controller-to-Philosopher" style="stroke:#181818;stroke-width:0.6;"/><polygon fill="none" points="870.678,591.474,870.595,580.0901,863.7813,582.4167,870.678,591.474" style="stroke:#181818;stroke-width:0.6;"/><text fill="#000000" font-family="sans-serif" font-size="7.8" lengthAdjust="spacing" textLength="4.2" x="849.0417" y="556.8249">1</text><text fill="#000000" font-family="sans-serif" font-size="7.8" lengthAdjust="spacing" textLength="12" x="849.2101" y="584.7734">3..*</text></g><!--reverse link Fork to Philosopher--><g id="link_Fork_Philosopher"><path codeLine="15" d="M791.784,650.7 C804.288,650.7 807.858,650.7 821.988,650.7 " fill="none" id="Fork-backto-Philosopher" style="stroke:#181818;stroke-width:0.6;"/><polygon fill="none" points="780.984,650.7,791.784,654.3,791.784,647.1,780.984,650.7" style="stroke:#181818;stroke-width:0.6;"/><text fill="#000000" font-family="sans-serif" font-size="7.8" lengthAdjust="spacing" textLength="4.2" x="785.7839" y="648.2884">2</text><text fill="#000000" font-family="sans-serif" font-size="7.8" lengthAdjust="spacing" textLength="4.2" x="813.0303" y="648.5808">1</text></g><!--link Philosopher to EventData--><g id="link_Philosopher_EventData"><path codeLine="16" d="M890.7,709.908 C890.7,722.166 890.7,731.25 890.7,742.746 " fill="none" id="Philosopher-to-EventData" style="stroke:#181818;stroke-width:0.6;"/><polygon fill="#181818" points="890.7,746.346,893.1,740.946,890.7,743.346,888.3,740.946,890.7,746.346" style="stroke:#181818;stroke-width:0.6;"/><text fill="#000000" font-family="sans-serif" font-size="7.8" lengthAdjust="spacing" textLength="16.8" x="873.2831" y="723.0547">uses</text></g><!--reverse link View to Controller--><g id="link_View_Controller"><path codeLine="17" d="M832.5,327.414 C832.5,356.256 832.5,382.644 832.5,414.108 " fill="none" id="View-backto-Controller" style="stroke:#181818;stroke-width:0.6;"/><polygon fill="none" points="832.5,316.614,828.9,327.414,836.1,327.414,832.5,316.614" style="stroke:#181818;stroke-width:0.6;"/><text fill="#000000" font-family="sans-serif" font-size="7.8" lengthAdjust="spacing" textLength="4.2" x="823.1133" y="329.6186">1</text><text fill="#000000" font-family="sans-serif" font-size="7.8" lengthAdjust="spacing" textLength="4.2" x="823.1977" y="407.6298">1</text></g><!--reverse link Canvas to View--><g id="link_Canvas_View"><path codeLine="18" d="M675.708,268.5 C689.334,268.5 692.256,268.5 705.666,268.5 " fill="none" id="Canvas-backto-View" style="stroke:#181818;stroke-width:0.6;"/><polygon fill="none" points="664.908,268.5,675.708,272.1,675.708,264.9,664.908,268.5" style="stroke:#181818;stroke-width:0.6;"/><text fill="#000000" font-family="sans-serif" font-size="7.8" lengthAdjust="spacing" textLength="4.2" x="669.3821" y="266.5654">1</text><text fill="#000000" font-family="sans-serif" font-size="7.8" lengthAdjust="spacing" textLength="4.2" x="696.8324" y="266.5398">1</text></g><!--link Canvas to ForkViewObject--><g id="link_Canvas_ForkViewObject"><path codeLine="19" d="M427.667,372.2104 C417.173,384.4204 418.3066,383.1081 408.1606,394.9041 " fill="none" id="Canvas-ForkViewObject" style="stroke:#181818;stroke-width:0.6;"/><polygon fill="#181818" points="432.36,366.75,428.1934,367.9159,427.667,372.2104,431.8336,371.0445,432.36,366.75" style="stroke:#181818;stroke-width:0.6;"/><polygon fill="none" points="401.118,403.092,410.8899,397.2516,405.4313,392.5566,401.118,403.092" style="stroke:#181818;stroke-width:0.6;"/><text fill="#000000" font-family="sans-serif" font-size="7.8" lengthAdjust="spacing" textLength="4.2" x="414.4438" y="379.8497">1</text><text fill="#000000" font-family="sans-serif" font-size="7.8" lengthAdjust="spacing" textLength="12" x="390.2291" y="396.3749">0..*</text></g><!--link HandViewObject to Canvas--><g id="link_HandViewObject_Canvas"><path codeLine="20" d="M318.12,268.5 C338.058,268.5 340.47,268.5 360.36,268.5 " fill="none" id="HandViewObject-Canvas" style="stroke:#181818;stroke-width:0.6;"/><polygon fill="none" points="307.32,268.5,318.12,272.1,318.12,264.9,307.32,268.5" style="stroke:#181818;stroke-width:0.6;"/><polygon fill="#181818" points="367.56,268.5,363.96,266.1,360.36,268.5,363.96,270.9,367.56,268.5" style="stroke:#181818;stroke-width:0.6;"/><text fill="#000000" font-family="sans-serif" font-size="7.8" lengthAdjust="spacing" textLength="12" x="311.9993" y="277.0701">0..*</text><text fill="#000000" font-family="sans-serif" font-size="7.8" lengthAdjust="spacing" textLength="4.2" x="358.8819" y="266.5654">1</text></g><!--link PhilosopherViewObject to Canvas--><g id="link_PhilosopherViewObject_Canvas"><path codeLine="21" d="M401.6086,141.9661 C412.2166,153.6181 411.3724,152.6864 422.6164,165.0344 " fill="none" id="PhilosopherViewObject-Canvas" style="stroke:#181818;stroke-width:0.6;"/><polygon fill="none" points="394.338,133.98,398.9465,144.3897,404.2706,139.5426,394.338,133.98" style="stroke:#181818;stroke-width:0.6;"/><polygon fill="#181818" points="427.464,170.358,426.8147,166.0803,422.6164,165.0344,423.2657,169.3121,427.464,170.358" style="stroke:#181818;stroke-width:0.6;"/><text fill="#000000" font-family="sans-serif" font-size="7.8" lengthAdjust="spacing" textLength="12" x="383.0725" y="146.6803">0..*</text><text fill="#000000" font-family="sans-serif" font-size="7.8" lengthAdjust="spacing" textLength="4.2" x="411.4849" y="163.5738">1</text></g><!--reverse link PhilosopherViewObject to HandViewObject--><g id="link_PhilosopherViewObject_HandViewObject"><path codeLine="22" d="M270.0009,141.9766 C242.5389,172.2286 217.854,199.428 193.602,226.146 " fill="none" id="PhilosopherViewObject-backto-HandViewObject" style="stroke:#181818;stroke-width:0.6;"/><polygon fill="none" points="277.26,133.98,267.3354,139.5569,272.6664,144.3963,277.26,133.98" style="stroke:#181818;stroke-width:0.6;"/><text fill="#000000" font-family="sans-serif" font-size="7.8" lengthAdjust="spacing" textLength="4.2" x="259.4783" y="146.6803">1</text><text fill="#000000" font-family="sans-serif" font-size="7.8" lengthAdjust="spacing" textLength="4.2" x="193.0941" y="219.475">1</text></g><!--link HandViewObject to ForkViewObject--><g id="link_HandViewObject_ForkViewObject"><path codeLine="23" d="M191.814,310.974 C214.512,337.29 237.4038,363.8341 264.1458,394.8361 " fill="none" id="HandViewObject-to-ForkViewObject" style="stroke:#181818;stroke-width:0.6;"/><polygon fill="none" points="271.2,403.014,266.8718,392.4847,261.4198,397.1875,271.2,403.014" style="stroke:#181818;stroke-width:0.6;"/><text fill="#000000" font-family="sans-serif" font-size="7.8" lengthAdjust="spacing" textLength="4.2" x="190.9623" y="324.0795">1</text><text fill="#000000" font-family="sans-serif" font-size="7.8" lengthAdjust="spacing" textLength="4.2" x="255.7069" y="396.5454">1</text></g><!--SRC=[bLLRRzCm57xthx3wGhOs6nrlqJG9jLmcXeO0eI7WmKtSrio98zij6zl-EpwsazX9ExQd-Dm-V-VYanThhMkL7H_Nd5HwK_AZN9J7EITAfGKZAqbAXAo8PwJQ4jK8ej9IS4wbLxpPqahFYIPUVYlaTN3ynkYVoyLlccklV4-gOg3yj6PSA56lMzX0C_061K8T4poQOZp2XsbwVuP7huwE3a6qH6Ad4GvTZ1ZU2_vuT38wlK-DRsJBy4-D0jc4RXHL07SM501uUIu69FN7e6AkaXQzkGLYB7nhmzWb0qHV0j5Hlv1n2PsNHJoqa0u9G6FM_H3SnjWRVPlt17XQFgzHlurzIjEcr0wxbm0Q31E-G-dMbi8sDrsQ09C2nFtuXL9IYasbCymgZSPTL1Be3z0ubvHe2W39GOQtWXLeh3IHEiZfwzeu5IfmM8i_SOY3WQi3jqrT66KYCdovK5HkoOBJ2IPo1Gf8gl5yY9yD91QoJ-kEYtej9RdDTiywf7tDEBzW5LKummiXE2KLg6rnV6nSMR2kJIkSzO8fSsjxF8sRT6OgQIdsgbWJyvs9iXQL6Up49FXE4iCwLrs52Cy3qcecX2nOPGgaacfJBgYyNCwOp3bre7jIT42sqBiGmD34zmPe39K9C1DMN2wZ1-l27Dt0O59PA00RH9Y02GPbUEqWVYv5_UnuHSC9TBr9Gki7amsqEL82JkpQZbQxSc2wA0Z3uJgV- -VIEYUTvmGFFKthLrHRRxZHnguYvkVpnj0oiKlJaAYfB9bkfnIDROq0qXGSebf3OIeup2ZkBo3UJ7rEjytXvgJHD0TMP7XffeOxjZ58uX4c-BOvU0IZQGw0qEP-DGqJ_nv9LoUHBPBEYq5TUllmpZtQmHo73TlxI6AiP1TGrCyzG2v7rvVXWuexdUnzics6uU_GfCVfKdVCK2hPQXqfVALHMiAmAveBiwQ-i2gd5qJfZvJm37DHhT3ORD_k8RHviRyqq1Bp_-r4kQc68xMJFmnMCqN-AtSFqyxmvAOP8F-LxHpjs3zkSAAv2ONF_vaXkBR_zyZzlzt_hCVspnNlxsUjnlefgn4_ijlgf-p6Hm0Uq3y0]--></g></svg>